<?xml version="1.0" encoding="UTF-8"?>
<svg xmlns="http://www.w3.org/2000/svg" xmlns:xlink="http://www.w3.org/1999/xlink" width="16px" height="16px" viewBox="0 0 16 16" version="1.1">
<g id="surface1">
<path style=" stroke:none;fill-rule:nonzero;fill:rgb(7.450981%,8.627451%,15.686275%);fill-opacity:1;" d="M 0 0 C 5.28125 0 10.558594 0 16 0 C 16 5.28125 16 10.558594 16 16 C 10.71875 16 5.441406 16 0 16 C 0 10.71875 0 5.441406 0 0 Z M 0 0 "/>
<path style=" stroke:none;fill-rule:nonzero;fill:rgb(7.450981%,8.627451%,15.686275%);fill-opacity:1;" d="M 8.0625 3.15625 C 8.097656 3.171875 8.097656 3.171875 8.132812 3.195312 C 8.152344 3.207031 8.152344 3.207031 8.171875 3.21875 C 8.1875 3.226562 8.199219 3.234375 8.214844 3.242188 C 8.246094 3.261719 8.277344 3.28125 8.308594 3.300781 C 8.332031 3.316406 8.332031 3.316406 8.355469 3.328125 C 8.4375 3.378906 8.519531 3.425781 8.601562 3.472656 C 8.75 3.558594 8.894531 3.640625 9.039062 3.726562 C 9.050781 3.734375 9.058594 3.738281 9.070312 3.746094 C 9.109375 3.765625 9.144531 3.789062 9.183594 3.8125 C 9.320312 3.890625 9.457031 3.972656 9.59375 4.050781 C 9.640625 4.078125 9.6875 4.105469 9.734375 4.132812 C 9.898438 4.226562 10.0625 4.324219 10.226562 4.417969 C 10.378906 4.507812 10.535156 4.597656 10.6875 4.6875 C 10.964844 4.851562 11.238281 5.015625 11.519531 5.171875 C 11.527344 5.179688 11.535156 5.183594 11.546875 5.191406 C 11.589844 5.214844 11.636719 5.242188 11.679688 5.265625 C 11.707031 5.28125 11.707031 5.28125 11.730469 5.296875 C 11.746094 5.304688 11.757812 5.3125 11.773438 5.320312 C 11.808594 5.34375 11.84375 5.363281 11.875 5.390625 C 11.835938 5.414062 11.796875 5.441406 11.757812 5.464844 C 11.742188 5.476562 11.742188 5.476562 11.722656 5.488281 C 11.660156 5.53125 11.59375 5.570312 11.53125 5.609375 C 11.515625 5.617188 11.503906 5.625 11.492188 5.632812 C 11.464844 5.648438 11.441406 5.664062 11.417969 5.675781 C 11.398438 5.6875 11.398438 5.6875 11.382812 5.695312 C 11.371094 5.703125 11.363281 5.707031 11.351562 5.714844 C 11.320312 5.742188 11.316406 5.757812 11.3125 5.796875 C 11.328125 5.84375 11.351562 5.882812 11.375 5.925781 C 11.382812 5.9375 11.390625 5.949219 11.394531 5.960938 C 11.402344 5.96875 11.40625 5.980469 11.414062 5.992188 C 11.421875 6.007812 11.421875 6.007812 11.429688 6.023438 C 11.453125 6.050781 11.453125 6.050781 11.488281 6.0625 C 11.546875 6.0625 11.574219 6.042969 11.625 6.015625 C 11.640625 6.003906 11.660156 5.996094 11.675781 5.984375 C 11.695312 5.972656 11.714844 5.960938 11.734375 5.953125 C 11.75 5.941406 11.769531 5.929688 11.789062 5.917969 C 11.859375 5.875 11.933594 5.832031 12.003906 5.78125 C 12.046875 5.75 12.046875 5.75 12.078125 5.75 C 12.082031 6.300781 12.082031 6.855469 12.085938 7.40625 C 12.085938 7.46875 12.085938 7.535156 12.085938 7.601562 C 12.085938 7.621094 12.085938 7.621094 12.085938 7.640625 C 12.085938 7.851562 12.085938 8.058594 12.089844 8.269531 C 12.089844 8.484375 12.089844 8.699219 12.089844 8.917969 C 12.089844 9.050781 12.09375 9.183594 12.09375 9.316406 C 12.09375 9.40625 12.09375 9.496094 12.09375 9.589844 C 12.09375 9.640625 12.09375 9.695312 12.09375 9.746094 C 12.09375 9.804688 12.09375 9.859375 12.09375 9.917969 C 12.09375 9.941406 12.09375 9.941406 12.097656 9.96875 C 12.09375 10.078125 12.09375 10.078125 12.046875 10.125 C 12.011719 10.148438 11.976562 10.167969 11.9375 10.1875 C 11.925781 10.195312 11.910156 10.203125 11.898438 10.210938 C 11.886719 10.21875 11.875 10.226562 11.863281 10.230469 C 11.851562 10.238281 11.839844 10.246094 11.824219 10.253906 C 11.8125 10.261719 11.800781 10.269531 11.785156 10.277344 C 11.761719 10.292969 11.761719 10.292969 11.742188 10.304688 C 11.691406 10.332031 11.644531 10.363281 11.59375 10.390625 C 11.558594 10.410156 11.523438 10.433594 11.484375 10.453125 C 11.464844 10.464844 11.449219 10.476562 11.429688 10.488281 C 11.417969 10.492188 11.410156 10.496094 11.402344 10.503906 C 11.382812 10.515625 11.363281 10.527344 11.34375 10.539062 C 11.152344 10.648438 10.960938 10.761719 10.769531 10.878906 C 10.664062 10.9375 10.5625 11 10.457031 11.058594 C 10.402344 11.09375 10.347656 11.125 10.289062 11.160156 C 10.144531 11.246094 10 11.332031 9.851562 11.414062 C 9.699219 11.503906 9.550781 11.59375 9.398438 11.683594 C 9.386719 11.691406 9.375 11.695312 9.367188 11.703125 C 9.253906 11.769531 9.144531 11.835938 9.035156 11.902344 C 8.945312 11.957031 8.851562 12.011719 8.761719 12.0625 C 8.734375 12.082031 8.703125 12.097656 8.675781 12.117188 C 8.652344 12.128906 8.652344 12.128906 8.628906 12.144531 C 8.546875 12.191406 8.464844 12.238281 8.382812 12.289062 C 8.355469 12.304688 8.328125 12.320312 8.300781 12.335938 C 8.28125 12.347656 8.265625 12.355469 8.25 12.367188 C 8.234375 12.375 8.214844 12.386719 8.199219 12.394531 C 8.160156 12.417969 8.125 12.445312 8.085938 12.46875 C 8.046875 12.492188 8.035156 12.5 7.992188 12.5 C 7.941406 12.480469 7.902344 12.457031 7.859375 12.429688 C 7.835938 12.414062 7.816406 12.402344 7.792969 12.390625 C 7.78125 12.382812 7.769531 12.375 7.757812 12.367188 C 7.679688 12.320312 7.601562 12.273438 7.523438 12.226562 C 7.503906 12.214844 7.484375 12.207031 7.46875 12.195312 C 7.320312 12.109375 7.175781 12.023438 7.027344 11.9375 C 6.910156 11.867188 6.792969 11.796875 6.675781 11.726562 C 6.578125 11.667969 6.484375 11.613281 6.386719 11.558594 C 6.246094 11.472656 6.105469 11.390625 5.964844 11.304688 C 5.839844 11.234375 5.71875 11.160156 5.597656 11.089844 C 5.453125 11.003906 5.308594 10.917969 5.164062 10.832031 C 5.015625 10.742188 4.867188 10.652344 4.714844 10.570312 C 4.589844 10.5 4.589844 10.5 4.535156 10.464844 C 4.523438 10.457031 4.523438 10.457031 4.507812 10.449219 C 4.480469 10.433594 4.457031 10.414062 4.429688 10.398438 C 4.375 10.363281 4.320312 10.347656 4.257812 10.332031 C 4.125 10.289062 4.007812 10.234375 3.9375 10.109375 C 3.851562 9.84375 3.886719 9.519531 3.894531 9.242188 C 3.898438 9.121094 3.898438 9 3.898438 8.878906 C 3.898438 8.664062 3.902344 8.449219 3.90625 8.234375 C 3.910156 8.027344 3.914062 7.816406 3.914062 7.609375 C 3.914062 7.589844 3.914062 7.589844 3.914062 7.570312 C 3.914062 7.503906 3.914062 7.4375 3.917969 7.375 C 3.921875 6.839844 3.929688 6.300781 3.9375 5.765625 C 3.976562 5.785156 4.011719 5.804688 4.050781 5.824219 C 4.066406 5.832031 4.066406 5.832031 4.082031 5.839844 C 4.140625 5.875 4.199219 5.90625 4.257812 5.941406 C 4.269531 5.949219 4.28125 5.957031 4.292969 5.964844 C 4.320312 5.976562 4.34375 5.992188 4.367188 6.007812 C 4.4375 6.050781 4.4375 6.050781 4.511719 6.066406 C 4.570312 6.035156 4.59375 5.980469 4.625 5.925781 C 4.632812 5.90625 4.632812 5.90625 4.644531 5.890625 C 4.675781 5.832031 4.675781 5.832031 4.6875 5.765625 C 4.667969 5.722656 4.640625 5.710938 4.601562 5.6875 C 4.585938 5.679688 4.574219 5.671875 4.558594 5.664062 C 4.535156 5.648438 4.535156 5.648438 4.511719 5.636719 C 4.480469 5.617188 4.449219 5.601562 4.417969 5.582031 C 4.394531 5.570312 4.394531 5.570312 4.371094 5.554688 C 4.316406 5.523438 4.261719 5.488281 4.203125 5.457031 C 4.1875 5.445312 4.171875 5.4375 4.15625 5.425781 C 4.148438 5.417969 4.136719 5.414062 4.125 5.40625 C 4.179688 5.34375 4.242188 5.308594 4.316406 5.273438 C 4.339844 5.257812 4.367188 5.242188 4.390625 5.230469 C 4.40625 5.222656 4.417969 5.214844 4.429688 5.207031 C 4.484375 5.179688 4.539062 5.148438 4.589844 5.117188 C 4.601562 5.109375 4.613281 5.105469 4.621094 5.097656 C 4.644531 5.082031 4.667969 5.070312 4.691406 5.054688 C 4.78125 5.003906 4.867188 4.953125 4.953125 4.902344 C 4.960938 4.898438 4.972656 4.890625 4.980469 4.886719 C 5.117188 4.804688 5.253906 4.726562 5.390625 4.648438 C 5.53125 4.566406 5.667969 4.488281 5.804688 4.40625 C 5.960938 4.3125 6.117188 4.222656 6.273438 4.132812 C 6.386719 4.066406 6.5 4.003906 6.609375 3.9375 C 6.625 3.925781 6.640625 3.917969 6.65625 3.910156 C 6.703125 3.882812 6.75 3.855469 6.796875 3.828125 C 6.859375 3.792969 6.921875 3.753906 6.984375 3.71875 C 6.996094 3.710938 7.011719 3.703125 7.027344 3.691406 C 7.109375 3.644531 7.191406 3.597656 7.273438 3.550781 C 7.296875 3.539062 7.296875 3.539062 7.324219 3.523438 C 7.355469 3.503906 7.390625 3.484375 7.425781 3.464844 C 7.511719 3.414062 7.601562 3.363281 7.6875 3.308594 C 7.707031 3.296875 7.722656 3.285156 7.742188 3.273438 C 7.773438 3.253906 7.808594 3.230469 7.84375 3.210938 C 7.863281 3.195312 7.863281 3.195312 7.886719 3.183594 C 7.902344 3.171875 7.914062 3.164062 7.929688 3.15625 C 7.980469 3.136719 8.007812 3.140625 8.0625 3.15625 Z M 8.0625 3.15625 "/>
<path style=" stroke:none;fill-rule:nonzero;fill:rgb(99.215686%,99.215686%,99.215686%);fill-opacity:1;" d="M 8.265625 4.640625 C 8.394531 4.734375 8.464844 4.835938 8.515625 4.984375 C 8.527344 5.167969 8.511719 5.304688 8.390625 5.449219 C 8.335938 5.507812 8.273438 5.554688 8.203125 5.59375 C 8.191406 5.59375 8.183594 5.59375 8.171875 5.59375 C 8.171875 6.058594 8.171875 6.523438 8.171875 7 C 8.234375 7.015625 8.296875 7.03125 8.359375 7.046875 C 8.378906 7.054688 8.394531 7.066406 8.414062 7.074219 C 8.425781 7.082031 8.441406 7.085938 8.453125 7.09375 C 8.5 7.074219 8.535156 7.046875 8.570312 7.011719 C 8.578125 7 8.589844 6.992188 8.601562 6.980469 C 8.613281 6.96875 8.621094 6.960938 8.632812 6.949219 C 8.644531 6.9375 8.65625 6.925781 8.667969 6.914062 C 8.691406 6.886719 8.71875 6.863281 8.742188 6.839844 C 8.777344 6.804688 8.816406 6.765625 8.851562 6.730469 C 8.875 6.707031 8.898438 6.683594 8.921875 6.660156 C 8.9375 6.640625 8.9375 6.640625 8.957031 6.625 C 9.007812 6.574219 9.058594 6.519531 9.105469 6.464844 C 9.144531 6.421875 9.183594 6.378906 9.226562 6.34375 C 9.363281 6.234375 9.363281 6.234375 9.429688 6.082031 C 9.414062 6.03125 9.398438 5.984375 9.375 5.9375 C 9.355469 5.828125 9.386719 5.714844 9.445312 5.617188 C 9.527344 5.503906 9.628906 5.429688 9.765625 5.390625 C 9.945312 5.371094 10.074219 5.402344 10.21875 5.507812 C 10.3125 5.59375 10.367188 5.699219 10.382812 5.824219 C 10.386719 5.992188 10.355469 6.128906 10.238281 6.253906 C 10.117188 6.351562 9.984375 6.394531 9.828125 6.390625 C 9.816406 6.386719 9.808594 6.386719 9.796875 6.382812 C 9.757812 6.371094 9.730469 6.367188 9.6875 6.375 C 9.625 6.414062 9.578125 6.46875 9.53125 6.523438 C 9.515625 6.535156 9.503906 6.550781 9.488281 6.566406 C 9.433594 6.625 9.378906 6.683594 9.324219 6.746094 C 9.265625 6.8125 9.203125 6.875 9.140625 6.9375 C 9.132812 6.949219 9.121094 6.960938 9.109375 6.972656 C 9.074219 7.007812 9.035156 7.042969 9 7.078125 C 8.976562 7.101562 8.953125 7.125 8.929688 7.152344 C 8.867188 7.210938 8.808594 7.269531 8.75 7.328125 C 8.78125 7.40625 8.816406 7.476562 8.855469 7.550781 C 8.875 7.59375 8.875 7.59375 8.875 7.625 C 8.882812 7.625 8.894531 7.625 8.902344 7.621094 C 9.238281 7.597656 9.574219 7.582031 9.914062 7.5625 C 9.933594 7.5625 9.949219 7.5625 9.96875 7.558594 C 10.007812 7.558594 10.042969 7.558594 10.078125 7.554688 C 10.21875 7.546875 10.21875 7.546875 10.359375 7.53125 C 10.390625 7.492188 10.390625 7.492188 10.40625 7.445312 C 10.460938 7.316406 10.542969 7.238281 10.667969 7.179688 C 10.804688 7.132812 10.957031 7.136719 11.089844 7.199219 C 11.230469 7.277344 11.304688 7.371094 11.367188 7.523438 C 11.394531 7.679688 11.378906 7.824219 11.289062 7.957031 C 11.207031 8.054688 11.109375 8.136719 10.984375 8.171875 C 10.828125 8.1875 10.691406 8.183594 10.558594 8.082031 C 10.5 8.035156 10.449219 7.984375 10.40625 7.921875 C 10.40625 7.910156 10.40625 7.902344 10.40625 7.890625 C 10.390625 7.890625 10.371094 7.894531 10.355469 7.894531 C 10.199219 7.902344 10.039062 7.910156 9.882812 7.921875 C 9.800781 7.925781 9.71875 7.929688 9.636719 7.933594 C 9.558594 7.941406 9.480469 7.945312 9.402344 7.949219 C 9.371094 7.949219 9.339844 7.953125 9.3125 7.953125 C 9.269531 7.957031 9.226562 7.960938 9.1875 7.960938 C 9.171875 7.960938 9.160156 7.964844 9.148438 7.964844 C 9.074219 7.96875 8.996094 7.96875 8.921875 7.96875 C 8.917969 7.988281 8.917969 7.988281 8.917969 8.003906 C 8.902344 8.097656 8.886719 8.179688 8.851562 8.265625 C 8.839844 8.304688 8.847656 8.324219 8.859375 8.359375 C 8.882812 8.390625 8.882812 8.390625 8.914062 8.421875 C 8.925781 8.433594 8.9375 8.445312 8.949219 8.457031 C 8.964844 8.46875 8.976562 8.480469 8.988281 8.496094 C 9.007812 8.515625 9.007812 8.515625 9.03125 8.535156 C 9.058594 8.5625 9.085938 8.589844 9.113281 8.617188 C 9.15625 8.660156 9.199219 8.703125 9.242188 8.746094 C 9.269531 8.773438 9.296875 8.800781 9.324219 8.828125 C 9.34375 8.847656 9.34375 8.847656 9.363281 8.863281 C 9.429688 8.929688 9.496094 8.996094 9.566406 9.054688 C 9.613281 9.09375 9.648438 9.136719 9.6875 9.179688 C 9.71875 9.207031 9.71875 9.207031 9.757812 9.199219 C 9.796875 9.1875 9.796875 9.1875 9.835938 9.171875 C 9.980469 9.132812 10.121094 9.148438 10.25 9.21875 C 10.367188 9.296875 10.4375 9.394531 10.476562 9.53125 C 10.503906 9.667969 10.492188 9.800781 10.421875 9.921875 C 10.34375 10.03125 10.242188 10.109375 10.117188 10.164062 C 9.960938 10.1875 9.84375 10.171875 9.703125 10.09375 C 9.660156 10.0625 9.660156 10.0625 9.625 10.03125 C 9.625 10.019531 9.625 10.011719 9.625 10 C 9.613281 10 9.605469 10 9.59375 10 C 9.574219 9.976562 9.574219 9.976562 9.554688 9.945312 C 9.546875 9.933594 9.542969 9.921875 9.535156 9.910156 C 9.5 9.84375 9.480469 9.792969 9.496094 9.71875 C 9.515625 9.621094 9.523438 9.527344 9.464844 9.441406 C 9.332031 9.273438 9.160156 9.128906 8.996094 8.988281 C 8.917969 8.921875 8.847656 8.847656 8.773438 8.773438 C 8.757812 8.761719 8.746094 8.746094 8.730469 8.730469 C 8.695312 8.695312 8.660156 8.660156 8.625 8.625 C 8.578125 8.648438 8.535156 8.671875 8.492188 8.703125 C 8.390625 8.761719 8.289062 8.8125 8.171875 8.8125 C 8.171875 9.292969 8.171875 9.773438 8.171875 10.265625 C 8.203125 10.277344 8.234375 10.285156 8.265625 10.296875 C 8.375 10.371094 8.453125 10.464844 8.492188 10.589844 C 8.523438 10.746094 8.515625 10.898438 8.433594 11.039062 C 8.351562 11.152344 8.234375 11.238281 8.09375 11.265625 C 7.914062 11.28125 7.789062 11.253906 7.652344 11.140625 C 7.550781 11.042969 7.492188 10.929688 7.480469 10.792969 C 7.476562 10.617188 7.507812 10.515625 7.628906 10.386719 C 7.6875 10.328125 7.734375 10.296875 7.8125 10.265625 C 7.8125 9.785156 7.8125 9.304688 7.8125 8.8125 C 7.777344 8.808594 7.742188 8.800781 7.703125 8.796875 C 7.667969 8.785156 7.667969 8.785156 7.640625 8.769531 C 7.625 8.761719 7.625 8.761719 7.609375 8.753906 C 7.597656 8.746094 7.585938 8.742188 7.574219 8.734375 C 7.5625 8.730469 7.554688 8.726562 7.542969 8.71875 C 7.488281 8.691406 7.4375 8.664062 7.390625 8.625 C 7.335938 8.648438 7.296875 8.683594 7.253906 8.726562 C 7.242188 8.742188 7.226562 8.753906 7.210938 8.769531 C 7.195312 8.785156 7.179688 8.800781 7.164062 8.816406 C 7.148438 8.832031 7.132812 8.851562 7.117188 8.867188 C 7.074219 8.910156 7.03125 8.953125 6.988281 8.996094 C 6.921875 9.0625 6.851562 9.132812 6.785156 9.199219 C 6.761719 9.222656 6.738281 9.246094 6.714844 9.269531 C 6.59375 9.390625 6.59375 9.390625 6.535156 9.4375 C 6.496094 9.464844 6.496094 9.464844 6.492188 9.503906 C 6.492188 9.523438 6.492188 9.523438 6.492188 9.542969 C 6.496094 9.554688 6.496094 9.570312 6.496094 9.582031 C 6.496094 9.597656 6.5 9.609375 6.5 9.625 C 6.507812 9.789062 6.484375 9.894531 6.375 10.019531 C 6.273438 10.117188 6.164062 10.171875 6.023438 10.179688 C 5.847656 10.171875 5.722656 10.105469 5.605469 9.980469 C 5.515625 9.871094 5.488281 9.753906 5.496094 9.613281 C 5.511719 9.457031 5.589844 9.351562 5.703125 9.25 C 5.796875 9.183594 5.878906 9.152344 5.992188 9.152344 C 6.007812 9.152344 6.023438 9.152344 6.039062 9.152344 C 6.117188 9.160156 6.191406 9.179688 6.265625 9.203125 C 6.273438 9.191406 6.285156 9.183594 6.296875 9.171875 C 6.332031 9.136719 6.367188 9.097656 6.40625 9.0625 C 6.421875 9.046875 6.4375 9.03125 6.453125 9.015625 C 6.53125 8.933594 6.613281 8.855469 6.699219 8.78125 C 6.773438 8.714844 6.847656 8.644531 6.917969 8.574219 C 6.9375 8.554688 6.957031 8.535156 6.976562 8.519531 C 7.003906 8.492188 7.03125 8.464844 7.058594 8.4375 C 7.070312 8.425781 7.070312 8.425781 7.082031 8.414062 C 7.109375 8.386719 7.109375 8.386719 7.140625 8.34375 C 7.140625 8.296875 7.140625 8.296875 7.125 8.25 C 7.121094 8.234375 7.121094 8.234375 7.117188 8.214844 C 7.113281 8.203125 7.113281 8.195312 7.109375 8.183594 C 7.105469 8.171875 7.105469 8.160156 7.101562 8.152344 C 7.097656 8.136719 7.097656 8.125 7.09375 8.109375 C 7.085938 8.089844 7.082031 8.066406 7.078125 8.042969 C 7.070312 8.023438 7.066406 8.003906 7.0625 7.984375 C 6.757812 7.960938 6.457031 7.945312 6.152344 7.929688 C 6.074219 7.925781 5.992188 7.921875 5.914062 7.917969 C 5.894531 7.917969 5.878906 7.914062 5.859375 7.914062 C 5.769531 7.910156 5.683594 7.902344 5.59375 7.890625 C 5.585938 7.90625 5.585938 7.90625 5.582031 7.925781 C 5.53125 8.039062 5.425781 8.113281 5.3125 8.15625 C 5.203125 8.191406 5.042969 8.191406 4.9375 8.148438 C 4.800781 8.074219 4.691406 7.960938 4.644531 7.8125 C 4.609375 7.683594 4.617188 7.5625 4.671875 7.4375 C 4.742188 7.320312 4.84375 7.21875 4.972656 7.167969 C 5.128906 7.128906 5.273438 7.140625 5.414062 7.222656 C 5.507812 7.285156 5.558594 7.34375 5.605469 7.449219 C 5.613281 7.464844 5.617188 7.480469 5.625 7.496094 C 5.628906 7.507812 5.636719 7.519531 5.640625 7.53125 C 5.921875 7.554688 6.207031 7.570312 6.488281 7.585938 C 6.542969 7.585938 6.59375 7.589844 6.644531 7.59375 C 6.695312 7.59375 6.75 7.597656 6.800781 7.601562 C 6.816406 7.601562 6.835938 7.601562 6.855469 7.601562 C 6.941406 7.605469 7.023438 7.609375 7.109375 7.609375 C 7.128906 7.578125 7.144531 7.542969 7.164062 7.511719 C 7.167969 7.503906 7.171875 7.492188 7.179688 7.484375 C 7.214844 7.417969 7.214844 7.417969 7.234375 7.34375 C 7.203125 7.304688 7.175781 7.269531 7.140625 7.234375 C 7.128906 7.226562 7.117188 7.214844 7.109375 7.203125 C 7 7.089844 6.886719 6.980469 6.777344 6.871094 C 6.6875 6.78125 6.601562 6.691406 6.519531 6.59375 C 6.40625 6.449219 6.40625 6.449219 6.246094 6.378906 C 6.203125 6.375 6.164062 6.378906 6.121094 6.386719 C 6 6.398438 5.902344 6.351562 5.808594 6.277344 C 5.695312 6.171875 5.625 6.050781 5.617188 5.890625 C 5.625 5.75 5.683594 5.617188 5.78125 5.515625 C 5.910156 5.414062 6.023438 5.382812 6.1875 5.382812 C 6.335938 5.398438 6.445312 5.472656 6.539062 5.585938 C 6.617188 5.707031 6.644531 5.824219 6.625 5.96875 C 6.613281 6 6.601562 6.03125 6.589844 6.0625 C 6.574219 6.109375 6.574219 6.109375 6.578125 6.15625 C 6.625 6.21875 6.675781 6.269531 6.738281 6.316406 C 6.765625 6.34375 6.789062 6.371094 6.816406 6.402344 C 6.875 6.46875 6.9375 6.535156 7.003906 6.597656 C 7.015625 6.609375 7.027344 6.621094 7.039062 6.632812 C 7.078125 6.671875 7.113281 6.707031 7.152344 6.746094 C 7.199219 6.792969 7.25 6.84375 7.300781 6.894531 C 7.316406 6.910156 7.316406 6.910156 7.335938 6.925781 C 7.386719 6.980469 7.4375 7.03125 7.484375 7.09375 C 7.5625 7.085938 7.625 7.058594 7.699219 7.03125 C 7.730469 7.015625 7.761719 7.007812 7.796875 7 C 7.800781 6.820312 7.800781 6.636719 7.804688 6.457031 C 7.804688 6.371094 7.804688 6.285156 7.808594 6.203125 C 7.808594 6.121094 7.808594 6.039062 7.808594 5.957031 C 7.808594 5.929688 7.8125 5.898438 7.8125 5.867188 C 7.824219 5.699219 7.824219 5.699219 7.765625 5.550781 C 7.730469 5.523438 7.695312 5.503906 7.65625 5.484375 C 7.542969 5.378906 7.492188 5.25 7.480469 5.097656 C 7.484375 4.941406 7.546875 4.832031 7.652344 4.71875 C 7.820312 4.5625 8.0625 4.519531 8.265625 4.640625 Z M 8.265625 4.640625 "/>
<path style=" stroke:none;fill-rule:nonzero;fill:rgb(99.215686%,99.215686%,99.215686%);fill-opacity:1;" d="M 8.117188 2.707031 C 8.167969 2.734375 8.214844 2.761719 8.265625 2.792969 C 8.28125 2.800781 8.300781 2.8125 8.320312 2.824219 C 8.355469 2.847656 8.394531 2.867188 8.429688 2.890625 C 8.511719 2.9375 8.589844 2.984375 8.671875 3.03125 C 8.703125 3.050781 8.734375 3.066406 8.765625 3.085938 C 8.863281 3.144531 8.960938 3.199219 9.058594 3.257812 C 9.199219 3.335938 9.335938 3.417969 9.472656 3.5 C 9.664062 3.609375 9.851562 3.71875 10.042969 3.828125 C 10.417969 4.042969 10.789062 4.261719 11.160156 4.476562 C 11.292969 4.554688 11.421875 4.628906 11.550781 4.707031 C 11.566406 4.714844 11.582031 4.722656 11.597656 4.734375 C 11.675781 4.777344 11.753906 4.824219 11.832031 4.867188 C 11.925781 4.921875 12.015625 4.976562 12.109375 5.03125 C 12.125 5.039062 12.136719 5.046875 12.152344 5.054688 C 12.191406 5.078125 12.230469 5.101562 12.269531 5.125 C 12.28125 5.132812 12.292969 5.140625 12.304688 5.144531 C 12.382812 5.191406 12.4375 5.238281 12.46875 5.328125 C 12.46875 5.355469 12.472656 5.382812 12.472656 5.410156 C 12.472656 5.429688 12.472656 5.445312 12.472656 5.464844 C 12.472656 5.492188 12.472656 5.492188 12.472656 5.519531 C 12.472656 5.542969 12.472656 5.5625 12.472656 5.582031 C 12.472656 5.636719 12.472656 5.695312 12.472656 5.75 C 12.472656 5.8125 12.472656 5.871094 12.472656 5.933594 C 12.472656 6.078125 12.472656 6.226562 12.472656 6.371094 C 12.472656 6.441406 12.472656 6.507812 12.472656 6.578125 C 12.472656 6.808594 12.472656 7.035156 12.472656 7.265625 C 12.472656 7.324219 12.472656 7.382812 12.472656 7.441406 C 12.472656 7.457031 12.472656 7.472656 12.472656 7.488281 C 12.472656 7.726562 12.472656 7.964844 12.472656 8.207031 C 12.476562 8.449219 12.476562 8.695312 12.476562 8.941406 C 12.476562 9.078125 12.476562 9.21875 12.476562 9.355469 C 12.476562 9.472656 12.476562 9.589844 12.476562 9.707031 C 12.476562 9.769531 12.476562 9.828125 12.476562 9.886719 C 12.476562 9.953125 12.476562 10.015625 12.476562 10.082031 C 12.476562 10.109375 12.476562 10.109375 12.476562 10.140625 C 12.476562 10.238281 12.472656 10.300781 12.40625 10.375 C 12.34375 10.433594 12.265625 10.476562 12.191406 10.523438 C 12.175781 10.53125 12.164062 10.539062 12.148438 10.546875 C 12.027344 10.617188 11.90625 10.691406 11.78125 10.761719 C 11.675781 10.820312 11.574219 10.882812 11.46875 10.945312 C 11.335938 11.023438 11.203125 11.101562 11.070312 11.179688 C 10.933594 11.257812 10.800781 11.335938 10.667969 11.414062 C 10.554688 11.480469 10.441406 11.546875 10.328125 11.613281 C 10.113281 11.738281 9.898438 11.867188 9.683594 11.996094 C 9.59375 12.046875 9.503906 12.101562 9.410156 12.15625 C 9.398438 12.164062 9.386719 12.171875 9.371094 12.179688 C 9.300781 12.21875 9.234375 12.261719 9.164062 12.300781 C 8.933594 12.4375 8.707031 12.570312 8.480469 12.710938 C 8.460938 12.722656 8.441406 12.734375 8.421875 12.746094 C 8.382812 12.769531 8.34375 12.792969 8.308594 12.816406 C 8.257812 12.847656 8.207031 12.875 8.15625 12.90625 C 8.136719 12.917969 8.136719 12.917969 8.117188 12.929688 C 8.050781 12.964844 8.011719 12.972656 7.9375 12.953125 C 7.890625 12.929688 7.890625 12.929688 7.84375 12.902344 C 7.832031 12.894531 7.832031 12.894531 7.816406 12.886719 C 7.789062 12.871094 7.761719 12.851562 7.730469 12.835938 C 7.710938 12.824219 7.691406 12.8125 7.671875 12.800781 C 7.515625 12.707031 7.363281 12.613281 7.210938 12.519531 C 6.960938 12.371094 6.710938 12.222656 6.460938 12.074219 C 6.378906 12.027344 6.296875 11.976562 6.214844 11.929688 C 5.894531 11.738281 5.574219 11.550781 5.25 11.363281 C 5.136719 11.296875 5.023438 11.230469 4.910156 11.164062 C 4.761719 11.078125 4.613281 10.992188 4.464844 10.90625 C 4.441406 10.890625 4.441406 10.890625 4.421875 10.878906 C 4.320312 10.820312 4.222656 10.761719 4.125 10.707031 C 3.855469 10.550781 3.855469 10.550781 3.730469 10.476562 C 3.71875 10.46875 3.710938 10.464844 3.699219 10.457031 C 3.621094 10.410156 3.5625 10.355469 3.53125 10.265625 C 3.53125 10.238281 3.527344 10.210938 3.527344 10.183594 C 3.527344 10.164062 3.527344 10.148438 3.527344 10.128906 C 3.527344 10.113281 3.527344 10.09375 3.527344 10.074219 C 3.527344 10.054688 3.527344 10.03125 3.527344 10.011719 C 3.527344 9.957031 3.527344 9.898438 3.527344 9.84375 C 3.527344 9.785156 3.527344 9.722656 3.527344 9.664062 C 3.527344 9.515625 3.527344 9.371094 3.527344 9.226562 C 3.527344 9.15625 3.527344 9.089844 3.527344 9.019531 C 3.527344 8.792969 3.527344 8.5625 3.527344 8.335938 C 3.527344 8.277344 3.527344 8.21875 3.527344 8.15625 C 3.527344 8.144531 3.527344 8.128906 3.527344 8.113281 C 3.527344 7.875 3.527344 7.636719 3.527344 7.398438 C 3.523438 7.152344 3.523438 6.90625 3.523438 6.664062 C 3.523438 6.527344 3.523438 6.386719 3.523438 6.25 C 3.523438 6.132812 3.523438 6.015625 3.523438 5.898438 C 3.523438 5.839844 3.523438 5.78125 3.523438 5.722656 C 3.523438 5.65625 3.523438 5.589844 3.523438 5.527344 C 3.523438 5.5 3.523438 5.5 3.523438 5.46875 C 3.523438 5.371094 3.527344 5.308594 3.59375 5.234375 C 3.667969 5.164062 3.753906 5.113281 3.839844 5.0625 C 3.855469 5.054688 3.871094 5.046875 3.886719 5.035156 C 3.933594 5.007812 3.984375 4.980469 4.03125 4.953125 C 4.0625 4.9375 4.089844 4.917969 4.121094 4.902344 C 4.183594 4.863281 4.246094 4.828125 4.304688 4.792969 C 4.40625 4.734375 4.503906 4.675781 4.605469 4.617188 C 4.898438 4.445312 5.191406 4.273438 5.488281 4.101562 C 5.601562 4.039062 5.714844 3.972656 5.828125 3.90625 C 5.957031 3.832031 6.089844 3.753906 6.21875 3.679688 C 6.394531 3.578125 6.574219 3.472656 6.75 3.371094 C 6.828125 3.324219 6.90625 3.28125 6.984375 3.234375 C 7.015625 3.214844 7.046875 3.199219 7.078125 3.179688 C 7.140625 3.144531 7.203125 3.105469 7.265625 3.070312 C 7.289062 3.058594 7.289062 3.058594 7.3125 3.042969 C 7.34375 3.023438 7.375 3.007812 7.40625 2.988281 C 7.488281 2.941406 7.570312 2.894531 7.652344 2.84375 C 7.667969 2.835938 7.6875 2.824219 7.703125 2.8125 C 7.738281 2.792969 7.769531 2.773438 7.804688 2.753906 C 7.816406 2.746094 7.832031 2.738281 7.847656 2.730469 C 7.863281 2.722656 7.875 2.714844 7.886719 2.707031 C 7.972656 2.660156 8.035156 2.667969 8.117188 2.707031 Z M 7.890625 3.183594 C 7.867188 3.199219 7.867188 3.199219 7.84375 3.214844 C 7.824219 3.222656 7.808594 3.234375 7.792969 3.246094 C 7.757812 3.265625 7.722656 3.289062 7.683594 3.308594 C 7.675781 3.316406 7.667969 3.320312 7.65625 3.328125 C 7.574219 3.378906 7.488281 3.425781 7.398438 3.476562 C 7.25 3.558594 7.105469 3.644531 6.957031 3.734375 C 6.820312 3.816406 6.679688 3.894531 6.539062 3.976562 C 6.378906 4.066406 6.222656 4.160156 6.0625 4.253906 C 5.984375 4.300781 5.90625 4.34375 5.828125 4.390625 C 5.796875 4.410156 5.765625 4.425781 5.734375 4.445312 C 5.671875 4.480469 5.609375 4.519531 5.546875 4.554688 C 5.523438 4.566406 5.523438 4.566406 5.5 4.582031 C 5.46875 4.601562 5.4375 4.617188 5.40625 4.636719 C 5.328125 4.683594 5.25 4.726562 5.171875 4.773438 C 5.007812 4.867188 4.84375 4.964844 4.679688 5.058594 C 4.5625 5.125 4.449219 5.191406 4.332031 5.261719 C 4.320312 5.265625 4.3125 5.273438 4.300781 5.277344 C 4.242188 5.3125 4.183594 5.351562 4.125 5.390625 C 4.195312 5.453125 4.273438 5.496094 4.351562 5.542969 C 4.464844 5.609375 4.578125 5.679688 4.6875 5.75 C 4.679688 5.828125 4.640625 5.882812 4.601562 5.949219 C 4.59375 5.960938 4.585938 5.972656 4.582031 5.984375 C 4.5625 6.007812 4.546875 6.035156 4.53125 6.0625 C 4.457031 6.054688 4.40625 6.035156 4.34375 5.996094 C 4.324219 5.984375 4.308594 5.976562 4.289062 5.964844 C 4.269531 5.953125 4.253906 5.941406 4.234375 5.933594 C 4.199219 5.910156 4.164062 5.890625 4.125 5.867188 C 4.109375 5.859375 4.09375 5.847656 4.078125 5.839844 C 4.03125 5.8125 3.984375 5.789062 3.9375 5.765625 C 3.925781 6.3125 3.917969 6.863281 3.914062 7.414062 C 3.914062 7.476562 3.914062 7.542969 3.914062 7.605469 C 3.914062 7.621094 3.914062 7.632812 3.914062 7.644531 C 3.910156 7.855469 3.90625 8.0625 3.902344 8.273438 C 3.898438 8.488281 3.894531 8.703125 3.894531 8.914062 C 3.894531 9.035156 3.894531 9.15625 3.890625 9.277344 C 3.847656 9.75 3.847656 9.75 3.980469 10.175781 C 4.078125 10.273438 4.203125 10.320312 4.335938 10.359375 C 4.417969 10.382812 4.488281 10.429688 4.5625 10.476562 C 4.589844 10.492188 4.617188 10.507812 4.644531 10.527344 C 4.667969 10.539062 4.667969 10.539062 4.6875 10.550781 C 4.738281 10.582031 4.792969 10.613281 4.84375 10.640625 C 4.851562 10.648438 4.863281 10.652344 4.871094 10.65625 C 4.878906 10.664062 4.890625 10.667969 4.898438 10.675781 C 4.917969 10.6875 4.9375 10.699219 4.957031 10.710938 C 4.96875 10.714844 4.976562 10.71875 4.988281 10.726562 C 5.121094 10.804688 5.253906 10.882812 5.386719 10.964844 C 5.515625 11.042969 5.648438 11.121094 5.78125 11.195312 C 5.949219 11.289062 6.113281 11.386719 6.277344 11.488281 C 6.429688 11.582031 6.585938 11.671875 6.742188 11.765625 C 6.796875 11.796875 6.847656 11.828125 6.902344 11.859375 C 7.046875 11.945312 7.191406 12.03125 7.335938 12.113281 C 7.347656 12.125 7.347656 12.125 7.363281 12.132812 C 7.414062 12.160156 7.460938 12.1875 7.507812 12.21875 C 7.597656 12.265625 7.683594 12.320312 7.769531 12.371094 C 7.789062 12.386719 7.789062 12.386719 7.8125 12.398438 C 7.839844 12.414062 7.863281 12.429688 7.890625 12.449219 C 7.902344 12.457031 7.914062 12.460938 7.925781 12.46875 C 7.9375 12.476562 7.945312 12.480469 7.957031 12.488281 C 7.992188 12.503906 8.011719 12.496094 8.046875 12.484375 C 8.078125 12.46875 8.109375 12.453125 8.136719 12.433594 C 8.148438 12.429688 8.15625 12.421875 8.167969 12.417969 C 8.199219 12.398438 8.234375 12.378906 8.265625 12.359375 C 8.277344 12.351562 8.289062 12.34375 8.304688 12.335938 C 8.390625 12.285156 8.476562 12.234375 8.566406 12.183594 C 8.621094 12.148438 8.675781 12.117188 8.730469 12.085938 C 8.878906 11.996094 9.027344 11.910156 9.175781 11.820312 C 9.199219 11.808594 9.21875 11.792969 9.242188 11.78125 C 9.351562 11.714844 9.464844 11.648438 9.574219 11.582031 C 9.671875 11.523438 9.769531 11.46875 9.867188 11.410156 C 10.035156 11.3125 10.199219 11.214844 10.363281 11.117188 C 10.417969 11.085938 10.476562 11.054688 10.53125 11.019531 C 10.636719 10.957031 10.742188 10.894531 10.847656 10.832031 C 10.882812 10.8125 10.917969 10.789062 10.953125 10.769531 C 10.980469 10.753906 10.980469 10.753906 11.007812 10.738281 C 11.097656 10.683594 11.191406 10.628906 11.285156 10.574219 C 11.480469 10.460938 11.675781 10.34375 11.871094 10.226562 C 11.878906 10.222656 11.890625 10.214844 11.898438 10.207031 C 11.996094 10.15625 11.996094 10.15625 12.078125 10.09375 C 12.078125 10.070312 12.078125 10.046875 12.078125 10.023438 C 12.082031 10.007812 12.082031 9.992188 12.082031 9.976562 C 12.082031 9.960938 12.078125 9.945312 12.078125 9.925781 C 12.078125 9.910156 12.078125 9.890625 12.078125 9.875 C 12.078125 9.824219 12.078125 9.773438 12.078125 9.726562 C 12.078125 9.671875 12.078125 9.617188 12.078125 9.566406 C 12.078125 9.472656 12.078125 9.378906 12.078125 9.289062 C 12.078125 9.152344 12.078125 9.019531 12.078125 8.886719 C 12.078125 8.671875 12.078125 8.453125 12.078125 8.238281 C 12.078125 8.027344 12.078125 7.816406 12.078125 7.605469 C 12.078125 7.59375 12.078125 7.578125 12.078125 7.566406 C 12.078125 7.5 12.078125 7.4375 12.078125 7.371094 C 12.078125 6.832031 12.078125 6.289062 12.078125 5.75 C 12.015625 5.773438 11.964844 5.800781 11.910156 5.835938 C 11.890625 5.847656 11.875 5.859375 11.855469 5.867188 C 11.824219 5.886719 11.792969 5.90625 11.761719 5.925781 C 11.726562 5.949219 11.691406 5.972656 11.65625 5.992188 C 11.644531 6 11.632812 6.007812 11.621094 6.015625 C 11.578125 6.042969 11.542969 6.0625 11.488281 6.066406 C 11.429688 6.035156 11.40625 5.984375 11.375 5.925781 C 11.371094 5.914062 11.363281 5.902344 11.355469 5.890625 C 11.3125 5.808594 11.3125 5.808594 11.3125 5.765625 C 11.335938 5.722656 11.359375 5.707031 11.402344 5.683594 C 11.425781 5.671875 11.425781 5.671875 11.449219 5.65625 C 11.464844 5.648438 11.480469 5.636719 11.496094 5.628906 C 11.53125 5.609375 11.5625 5.589844 11.59375 5.570312 C 11.613281 5.5625 11.628906 5.550781 11.644531 5.542969 C 11.722656 5.496094 11.800781 5.441406 11.875 5.390625 C 11.832031 5.355469 11.789062 5.328125 11.738281 5.300781 C 11.726562 5.292969 11.710938 5.285156 11.695312 5.277344 C 11.679688 5.269531 11.667969 5.261719 11.648438 5.253906 C 11.484375 5.160156 11.320312 5.0625 11.15625 4.964844 C 11.066406 4.914062 10.980469 4.859375 10.890625 4.808594 C 10.871094 4.796875 10.851562 4.785156 10.832031 4.773438 C 10.800781 4.757812 10.773438 4.742188 10.746094 4.722656 C 10.675781 4.683594 10.609375 4.644531 10.539062 4.605469 C 10.34375 4.488281 10.144531 4.371094 9.945312 4.257812 C 9.785156 4.164062 9.625 4.074219 9.46875 3.980469 C 9.390625 3.933594 9.3125 3.890625 9.234375 3.84375 C 9.140625 3.789062 9.046875 3.734375 8.953125 3.679688 C 8.773438 3.574219 8.589844 3.46875 8.410156 3.363281 C 8.335938 3.320312 8.261719 3.28125 8.191406 3.234375 C 8.179688 3.230469 8.167969 3.222656 8.15625 3.214844 C 8.128906 3.199219 8.101562 3.179688 8.074219 3.164062 C 8 3.125 7.957031 3.144531 7.890625 3.183594 Z M 7.890625 3.183594 "/>
<path style=" stroke:none;fill-rule:nonzero;fill:rgb(7.450981%,8.627451%,15.294118%);fill-opacity:1;" d="M 8.316406 7.417969 C 8.449219 7.523438 8.554688 7.652344 8.578125 7.828125 C 8.59375 8.007812 8.550781 8.15625 8.4375 8.296875 C 8.316406 8.421875 8.167969 8.484375 7.992188 8.488281 C 7.828125 8.484375 7.699219 8.425781 7.578125 8.316406 C 7.453125 8.179688 7.417969 8.035156 7.417969 7.851562 C 7.429688 7.699219 7.515625 7.570312 7.625 7.464844 C 7.832031 7.289062 8.085938 7.292969 8.316406 7.417969 Z M 8.316406 7.417969 "/>
<path style=" stroke:none;fill-rule:nonzero;fill:rgb(21.568628%,21.568628%,23.137255%);fill-opacity:1;" d="M 12.046875 5.75 C 12.058594 5.75 12.066406 5.75 12.078125 5.75 C 12.078125 6.300781 12.082031 6.855469 12.082031 7.40625 C 12.082031 7.472656 12.082031 7.539062 12.082031 7.601562 C 12.082031 7.617188 12.082031 7.628906 12.082031 7.644531 C 12.082031 7.851562 12.082031 8.0625 12.082031 8.273438 C 12.082031 8.488281 12.082031 8.703125 12.085938 8.921875 C 12.085938 9.054688 12.085938 9.1875 12.085938 9.320312 C 12.085938 9.410156 12.085938 9.503906 12.085938 9.59375 C 12.085938 9.648438 12.085938 9.699219 12.085938 9.753906 C 12.085938 9.808594 12.085938 9.867188 12.085938 9.921875 C 12.085938 9.941406 12.085938 9.957031 12.085938 9.972656 C 12.085938 9.988281 12.085938 10.003906 12.085938 10.019531 C 12.085938 10.035156 12.085938 10.046875 12.085938 10.058594 C 12.078125 10.09375 12.078125 10.09375 12.046875 10.121094 C 12.035156 10.128906 12.027344 10.132812 12.015625 10.140625 C 12.003906 10.136719 11.996094 10.128906 11.984375 10.125 C 12 10.113281 12.015625 10.105469 12.03125 10.09375 C 12.039062 10.0625 12.039062 10.0625 12.035156 10.023438 C 12.039062 10.007812 12.039062 9.992188 12.039062 9.976562 C 12.035156 9.953125 12.035156 9.953125 12.035156 9.929688 C 12.035156 9.910156 12.035156 9.894531 12.035156 9.875 C 12.035156 9.816406 12.035156 9.757812 12.035156 9.699219 C 12.035156 9.65625 12.035156 9.613281 12.035156 9.570312 C 12.035156 9.480469 12.035156 9.390625 12.035156 9.300781 C 12.035156 9.167969 12.035156 9.035156 12.035156 8.90625 C 12.035156 8.691406 12.035156 8.476562 12.035156 8.265625 C 12.035156 8.058594 12.035156 7.851562 12.035156 7.644531 C 12.035156 7.628906 12.035156 7.617188 12.035156 7.605469 C 12.035156 7.539062 12.035156 7.476562 12.035156 7.414062 C 12.03125 6.917969 12.03125 6.425781 12.03125 5.929688 C 12.03125 5.914062 12.03125 5.902344 12.03125 5.886719 C 12.03125 5.871094 12.03125 5.859375 12.03125 5.847656 C 12.03125 5.820312 12.03125 5.792969 12.03125 5.765625 C 12.035156 5.761719 12.042969 5.753906 12.046875 5.75 Z M 12.046875 5.75 "/>
<path style=" stroke:none;fill-rule:nonzero;fill:rgb(7.058824%,8.235294%,13.725491%);fill-opacity:1;" d="M 7.996094 4.917969 C 8.054688 4.917969 8.074219 4.921875 8.125 4.949219 C 8.171875 5 8.183594 5.027344 8.195312 5.101562 C 8.1875 5.167969 8.167969 5.199219 8.125 5.25 C 8.0625 5.292969 8.011719 5.292969 7.9375 5.28125 C 7.886719 5.253906 7.855469 5.21875 7.820312 5.175781 C 7.808594 5.121094 7.8125 5.070312 7.828125 5.015625 C 7.867188 4.96875 7.867188 4.96875 7.90625 4.9375 C 7.933594 4.910156 7.960938 4.917969 7.996094 4.917969 Z M 7.996094 4.917969 "/>
<path style=" stroke:none;fill-rule:nonzero;fill:rgb(7.450981%,8.627451%,14.117648%);fill-opacity:1;" d="M 6.078125 9.484375 C 6.125 9.511719 6.164062 9.542969 6.1875 9.59375 C 6.195312 9.667969 6.195312 9.703125 6.160156 9.773438 C 6.109375 9.828125 6.085938 9.839844 6.007812 9.851562 C 5.941406 9.84375 5.910156 9.824219 5.859375 9.78125 C 5.828125 9.738281 5.8125 9.710938 5.8125 9.65625 C 5.824219 9.59375 5.84375 9.558594 5.890625 9.515625 C 5.964844 9.464844 5.992188 9.464844 6.078125 9.484375 Z M 6.078125 9.484375 "/>
<path style=" stroke:none;fill-rule:nonzero;fill:rgb(7.450981%,8.627451%,14.509805%);fill-opacity:1;" d="M 5.203125 7.484375 C 5.257812 7.507812 5.277344 7.527344 5.3125 7.574219 C 5.332031 7.636719 5.335938 7.683594 5.3125 7.75 C 5.277344 7.792969 5.25 7.820312 5.203125 7.84375 C 5.128906 7.851562 5.09375 7.851562 5.023438 7.816406 C 4.980469 7.777344 4.964844 7.761719 4.953125 7.703125 C 4.949219 7.628906 4.960938 7.589844 5.007812 7.53125 C 5.070312 7.480469 5.121094 7.476562 5.203125 7.484375 Z M 5.203125 7.484375 "/>
<path style=" stroke:none;fill-rule:nonzero;fill:rgb(7.058824%,8.235294%,13.725491%);fill-opacity:1;" d="M 10.9375 7.484375 C 10.984375 7.511719 11.023438 7.542969 11.046875 7.59375 C 11.050781 7.675781 11.054688 7.730469 11 7.796875 C 10.960938 7.839844 10.925781 7.847656 10.867188 7.851562 C 10.789062 7.847656 10.757812 7.820312 10.703125 7.765625 C 10.675781 7.710938 10.679688 7.652344 10.6875 7.59375 C 10.746094 7.488281 10.824219 7.46875 10.9375 7.484375 Z M 10.9375 7.484375 "/>
<path style=" stroke:none;fill-rule:nonzero;fill:rgb(7.058824%,8.235294%,13.725491%);fill-opacity:1;" d="M 6.1875 5.703125 C 6.238281 5.726562 6.269531 5.75 6.304688 5.792969 C 6.324219 5.867188 6.320312 5.921875 6.285156 5.988281 C 6.25 6.03125 6.226562 6.058594 6.171875 6.066406 C 6.085938 6.070312 6.035156 6.058594 5.96875 6 C 5.941406 5.941406 5.945312 5.875 5.953125 5.8125 C 6.007812 5.714844 6.078125 5.6875 6.1875 5.703125 Z M 6.1875 5.703125 "/>
<path style=" stroke:none;fill-rule:nonzero;fill:rgb(8.235294%,9.411765%,16.470589%);fill-opacity:1;" d="M 10.046875 9.484375 C 10.097656 9.5 10.117188 9.515625 10.140625 9.5625 C 10.167969 9.625 10.179688 9.667969 10.15625 9.734375 C 10.117188 9.792969 10.101562 9.820312 10.03125 9.84375 C 9.964844 9.851562 9.929688 9.847656 9.871094 9.816406 C 9.8125 9.765625 9.800781 9.730469 9.789062 9.65625 C 9.796875 9.597656 9.820312 9.5625 9.859375 9.515625 C 9.921875 9.472656 9.972656 9.476562 10.046875 9.484375 Z M 10.046875 9.484375 "/>
<path style=" stroke:none;fill-rule:nonzero;fill:rgb(7.058824%,8.235294%,13.725491%);fill-opacity:1;" d="M 8.078125 10.578125 C 8.117188 10.613281 8.148438 10.640625 8.171875 10.6875 C 8.175781 10.769531 8.179688 10.824219 8.125 10.890625 C 8.0625 10.933594 8.011719 10.945312 7.9375 10.933594 C 7.878906 10.910156 7.84375 10.867188 7.8125 10.8125 C 7.804688 10.75 7.804688 10.71875 7.832031 10.660156 C 7.902344 10.570312 7.96875 10.550781 8.078125 10.578125 Z M 8.078125 10.578125 "/>
<path style=" stroke:none;fill-rule:nonzero;fill:rgb(6.666667%,7.843138%,13.333334%);fill-opacity:1;" d="M 9.9375 5.703125 C 9.988281 5.726562 10.019531 5.75 10.054688 5.792969 C 10.074219 5.867188 10.070312 5.921875 10.035156 5.988281 C 10 6.03125 9.976562 6.058594 9.921875 6.066406 C 9.855469 6.070312 9.8125 6.070312 9.757812 6.023438 C 9.699219 5.964844 9.695312 5.929688 9.699219 5.847656 C 9.707031 5.789062 9.738281 5.761719 9.78125 5.71875 C 9.832031 5.695312 9.882812 5.695312 9.9375 5.703125 Z M 9.9375 5.703125 "/>
<path style=" stroke:none;fill-rule:nonzero;fill:rgb(0.392157%,0.392157%,1.568628%);fill-opacity:1;" d="M 8.59375 8.609375 C 8.65625 8.632812 8.695312 8.675781 8.738281 8.722656 C 8.75 8.734375 8.75 8.734375 8.765625 8.746094 C 8.789062 8.773438 8.816406 8.796875 8.839844 8.824219 C 8.976562 8.964844 8.976562 8.964844 9.125 9.097656 C 9.1875 9.152344 9.25 9.210938 9.3125 9.269531 C 9.328125 9.285156 9.34375 9.300781 9.359375 9.316406 C 9.496094 9.4375 9.496094 9.4375 9.507812 9.515625 C 9.503906 9.558594 9.496094 9.597656 9.484375 9.640625 C 9.480469 9.667969 9.472656 9.691406 9.46875 9.71875 C 9.464844 9.71875 9.457031 9.71875 9.453125 9.71875 C 9.453125 9.699219 9.453125 9.675781 9.453125 9.65625 C 9.453125 9.640625 9.453125 9.628906 9.453125 9.617188 C 9.453125 9.578125 9.453125 9.578125 9.464844 9.535156 C 9.472656 9.480469 9.472656 9.480469 9.4375 9.441406 C 9.421875 9.425781 9.40625 9.410156 9.394531 9.398438 C 9.382812 9.390625 9.375 9.382812 9.367188 9.371094 C 9.34375 9.347656 9.316406 9.324219 9.289062 9.296875 C 9.273438 9.28125 9.253906 9.265625 9.238281 9.246094 C 9.171875 9.179688 9.101562 9.117188 9.03125 9.054688 C 8.976562 9.011719 8.929688 8.960938 8.882812 8.914062 C 8.875 8.90625 8.871094 8.898438 8.863281 8.890625 C 8.832031 8.859375 8.800781 8.828125 8.769531 8.796875 C 8.75 8.773438 8.726562 8.75 8.703125 8.726562 C 8.691406 8.710938 8.675781 8.699219 8.664062 8.683594 C 8.628906 8.652344 8.628906 8.652344 8.582031 8.660156 C 8.570312 8.664062 8.558594 8.667969 8.546875 8.671875 C 8.5625 8.652344 8.578125 8.628906 8.59375 8.609375 Z M 8.59375 8.609375 "/>
<path style=" stroke:none;fill-rule:nonzero;fill:rgb(2.352941%,2.352941%,3.529412%);fill-opacity:1;" d="M 6.25 6.375 C 6.324219 6.382812 6.351562 6.410156 6.402344 6.460938 C 6.417969 6.472656 6.433594 6.488281 6.445312 6.503906 C 6.460938 6.519531 6.476562 6.53125 6.492188 6.546875 C 6.503906 6.5625 6.519531 6.578125 6.535156 6.59375 C 6.59375 6.652344 6.652344 6.714844 6.710938 6.78125 C 6.789062 6.871094 6.875 6.953125 6.960938 7.039062 C 7.191406 7.265625 7.191406 7.265625 7.25 7.34375 C 7.25 7.359375 7.25 7.375 7.25 7.390625 C 7.238281 7.390625 7.230469 7.390625 7.21875 7.390625 C 7.203125 7.363281 7.1875 7.339844 7.171875 7.3125 C 7.039062 7.15625 6.890625 7.011719 6.742188 6.867188 C 6.667969 6.792969 6.59375 6.71875 6.523438 6.636719 C 6.484375 6.589844 6.4375 6.546875 6.394531 6.5 C 6.386719 6.492188 6.375 6.484375 6.367188 6.476562 C 6.332031 6.4375 6.292969 6.40625 6.25 6.375 Z M 6.25 6.375 "/>
<path style=" stroke:none;fill-rule:nonzero;fill:rgb(1.960784%,1.960784%,3.529412%);fill-opacity:1;" d="M 9.980469 9.484375 C 10 9.484375 10 9.484375 10.019531 9.484375 C 10.03125 9.484375 10.03125 9.484375 10.046875 9.484375 C 10.042969 9.496094 10.035156 9.503906 10.03125 9.515625 C 10.019531 9.511719 10.003906 9.511719 9.992188 9.507812 C 9.933594 9.515625 9.921875 9.523438 9.882812 9.5625 C 9.851562 9.605469 9.84375 9.625 9.835938 9.683594 C 9.839844 9.734375 9.839844 9.734375 9.867188 9.773438 C 9.925781 9.808594 9.980469 9.804688 10.046875 9.796875 C 10.089844 9.785156 10.089844 9.785156 10.109375 9.75 C 10.125 9.679688 10.128906 9.617188 10.109375 9.546875 C 10.140625 9.574219 10.15625 9.589844 10.171875 9.628906 C 10.171875 9.699219 10.144531 9.757812 10.101562 9.8125 C 10.046875 9.851562 9.988281 9.847656 9.921875 9.84375 C 9.867188 9.816406 9.835938 9.796875 9.804688 9.742188 C 9.789062 9.667969 9.785156 9.628906 9.824219 9.558594 C 9.875 9.496094 9.902344 9.480469 9.980469 9.484375 Z M 9.980469 9.484375 "/>
<path style=" stroke:none;fill-rule:nonzero;fill:rgb(4.705882%,4.705882%,6.666667%);fill-opacity:1;" d="M 5.203125 7.484375 C 5.203125 7.496094 5.203125 7.503906 5.203125 7.515625 C 5.191406 7.515625 5.183594 7.519531 5.171875 7.519531 C 5.15625 7.523438 5.140625 7.523438 5.128906 7.527344 C 5.113281 7.53125 5.101562 7.53125 5.085938 7.535156 C 5.039062 7.550781 5.023438 7.566406 5 7.609375 C 4.992188 7.644531 4.992188 7.644531 4.988281 7.683594 C 4.988281 7.695312 4.988281 7.707031 4.984375 7.722656 C 4.984375 7.730469 4.984375 7.742188 4.984375 7.75 C 4.949219 7.695312 4.949219 7.671875 4.960938 7.609375 C 4.976562 7.558594 5.007812 7.53125 5.046875 7.5 C 5.097656 7.476562 5.148438 7.484375 5.203125 7.484375 Z M 5.203125 7.484375 "/>
<path style=" stroke:none;fill-rule:nonzero;fill:rgb(5.098039%,5.490196%,8.235294%);fill-opacity:1;" d="M 9.980469 9.484375 C 10 9.484375 10 9.484375 10.019531 9.484375 C 10.03125 9.484375 10.03125 9.484375 10.046875 9.484375 C 10.042969 9.496094 10.035156 9.503906 10.03125 9.515625 C 10.019531 9.511719 10.003906 9.511719 9.992188 9.507812 C 9.921875 9.519531 9.902344 9.546875 9.859375 9.601562 C 9.855469 9.609375 9.847656 9.617188 9.84375 9.625 C 9.828125 9.621094 9.8125 9.613281 9.796875 9.609375 C 9.878906 9.480469 9.878906 9.480469 9.980469 9.484375 Z M 9.980469 9.484375 "/>
<path style=" stroke:none;fill-rule:nonzero;fill:rgb(2.352941%,2.745098%,4.313726%);fill-opacity:1;" d="M 7.671875 7.046875 C 7.5625 7.109375 7.5625 7.109375 7.5 7.105469 C 7.488281 7.101562 7.480469 7.097656 7.46875 7.09375 C 7.464844 7.078125 7.457031 7.0625 7.453125 7.046875 C 7.46875 7.050781 7.480469 7.054688 7.496094 7.054688 C 7.566406 7.066406 7.605469 7.023438 7.671875 7.046875 Z M 7.671875 7.046875 "/>
<path style=" stroke:none;fill-rule:nonzero;fill:rgb(13.725491%,14.509805%,20%);fill-opacity:1;" d="M 6.015625 7.53125 C 6.078125 7.53125 6.140625 7.53125 6.203125 7.53125 C 6.207031 7.542969 6.214844 7.550781 6.21875 7.5625 C 6.195312 7.566406 6.167969 7.570312 6.144531 7.574219 C 6.121094 7.578125 6.121094 7.578125 6.101562 7.578125 C 6.0625 7.578125 6.0625 7.578125 6.015625 7.53125 Z M 6.015625 7.53125 "/>
<path style=" stroke:none;fill-rule:nonzero;fill:rgb(4.313726%,4.313726%,6.27451%);fill-opacity:1;" d="M 8.921875 8.921875 C 8.980469 8.972656 9.039062 9.023438 9.09375 9.078125 C 9.046875 9.078125 9.046875 9.078125 9.015625 9.050781 C 9.003906 9.039062 8.992188 9.027344 8.980469 9.015625 C 8.964844 9 8.964844 9 8.949219 8.984375 C 8.921875 8.953125 8.921875 8.953125 8.921875 8.921875 Z M 8.921875 8.921875 "/>
<path style=" stroke:none;fill-rule:nonzero;fill:rgb(17.254902%,18.039216%,23.529412%);fill-opacity:1;" d="M 6.609375 7.5625 C 6.671875 7.5625 6.734375 7.5625 6.796875 7.5625 C 6.75 7.609375 6.75 7.609375 6.695312 7.617188 C 6.675781 7.613281 6.660156 7.613281 6.640625 7.609375 C 6.628906 7.59375 6.621094 7.578125 6.609375 7.5625 Z M 6.609375 7.5625 "/>
<path style=" stroke:none;fill-rule:nonzero;fill:rgb(11.372549%,12.156863%,16.862746%);fill-opacity:1;" d="M 6.5625 9.390625 C 6.582031 9.402344 6.605469 9.410156 6.625 9.421875 C 6.570312 9.46875 6.570312 9.46875 6.515625 9.46875 C 6.546875 9.40625 6.546875 9.40625 6.5625 9.390625 Z M 6.5625 9.390625 "/>
<path style=" stroke:none;fill-rule:nonzero;fill:rgb(12.156863%,12.941177%,16.862746%);fill-opacity:1;" d="M 5.828125 7.515625 C 5.871094 7.519531 5.910156 7.527344 5.953125 7.53125 C 5.894531 7.570312 5.863281 7.566406 5.796875 7.5625 C 5.808594 7.546875 5.816406 7.53125 5.828125 7.515625 Z M 5.828125 7.515625 "/>
</g>
</svg>
