<svg width="200" height="200" viewBox="0 0 200 200" fill="none" xmlns="http://www.w3.org/2000/svg">
  <!-- Fondo circular con gradiente -->
  <circle cx="100" cy="100" r="95" fill="url(#backgroundGradient)" stroke="url(#borderGradient)" stroke-width="10"/>
  
  <!-- Sombra interior -->
  <circle cx="100" cy="100" r="85" fill="none" stroke="rgba(0,0,0,0.2)" stroke-width="2"/>
  
  <!-- Logo principal -->
  <rect x="50" y="50" width="100" height="100" rx="20" fill="url(#logoGradient)" />
  
  <!-- "M" estilizada muy detallada -->
  <path d="M70 130V70h12L94 106L106 70H118v60h-8.4V87.2L101.6 110h-4.2L89 87.2V130H70z" 
        fill="white" 
        stroke="rgba(255,255,255,0.3)" 
        stroke-width="1"/>
  
  <!-- Efectos de brillo y profundidad -->
  <rect x="50" y="50" width="100" height="40" rx="20" fill="url(#shine)" opacity="0.4" />
  
  <!-- Borde interior del logo -->
  <rect x="50" y="50" width="100" height="100" rx="20" fill="none" stroke="rgba(255,255,255,0.2)" stroke-width="2"/>
  
  <!-- Pequeños detalles decorativos -->
  <circle cx="160" cy="60" r="8" fill="rgba(6, 182, 212, 0.6)" />
  <circle cx="40" cy="140" r="6" fill="rgba(14, 165, 233, 0.4)" />
  <circle cx="170" cy="150" r="5" fill="rgba(8, 145, 178, 0.5)" />
  
  <!-- Gradientes -->
  <defs>
    <!-- Gradiente de fondo -->
    <linearGradient id="backgroundGradient" x1="0%" y1="0%" x2="100%" y2="100%">
      <stop offset="0%" stop-color="#1e293b" />
      <stop offset="50%" stop-color="#334155" />
      <stop offset="100%" stop-color="#475569" />
    </linearGradient>
    
    <!-- Gradiente del borde -->
    <linearGradient id="borderGradient" x1="0%" y1="0%" x2="100%" y2="100%">
      <stop offset="0%" stop-color="#06b6d4" />
      <stop offset="50%" stop-color="#0891b2" />
      <stop offset="100%" stop-color="#0284c7" />
    </linearGradient>
    
    <!-- Gradiente del logo -->
    <linearGradient id="logoGradient" x1="0%" y1="0%" x2="100%" y2="100%">
      <stop offset="0%" stop-color="#0891b2" />
      <stop offset="30%" stop-color="#06b6d4" />
      <stop offset="70%" stop-color="#0284c7" />
      <stop offset="100%" stop-color="#0369a1" />
    </linearGradient>
    
    <!-- Efecto de brillo -->
    <linearGradient id="shine" x1="0%" y1="0%" x2="100%" y2="0%">
      <stop offset="0%" stop-color="rgba(255,255,255,0)" />
      <stop offset="30%" stop-color="rgba(255,255,255,0.1)" />
      <stop offset="50%" stop-color="rgba(255,255,255,0.8)" />
      <stop offset="70%" stop-color="rgba(255,255,255,0.1)" />
      <stop offset="100%" stop-color="rgba(255,255,255,0)" />
    </linearGradient>
  </defs>
</svg>
